<svg width="32" height="32" viewBox="0 0 32 32" fill="none" xmlns="http://www.w3.org/2000/svg">
<path fill-rule="evenodd" clip-rule="evenodd" d="M15.9997 28.0001L16.6997 29.1334C16.2703 29.4001 15.7263 29.4001 15.2983 29.1334L15.2943 29.1321L15.2863 29.1267L15.2597 29.1094C15.1193 29.0211 14.9811 28.9295 14.845 28.8348C14.4632 28.572 14.0893 28.2981 13.7237 28.0134C12.5136 27.0735 11.3847 26.0334 10.349 24.9041C7.91034 22.2361 5.33301 18.2601 5.33301 13.3334C5.33301 7.28142 10.1223 2.66675 15.9997 2.66675C21.877 2.66675 26.6663 7.28142 26.6663 13.3334C26.6663 18.2601 24.089 22.2361 21.6503 24.9041C20.6151 26.0333 19.4867 27.0734 18.277 28.0134C17.808 28.3773 17.3254 28.7233 16.8303 29.0508C16.8002 29.0705 16.77 29.09 16.7397 29.1094L16.713 29.1267L16.705 29.1321H16.7023C16.7023 29.1321 16.6997 29.1348 15.9997 28.0001Z" fill="white"/>
<path fill-rule="evenodd" clip-rule="evenodd" d="M15.9997 28.0001L16.6997 29.1334C16.2703 29.4001 15.7263 29.4001 15.2983 29.1334L15.2943 29.1321L15.2863 29.1267L15.2597 29.1094C15.1193 29.0211 14.9811 28.9295 14.845 28.8347C14.4632 28.572 14.0893 28.2981 13.7237 28.0134C12.5136 27.0735 11.3847 26.0333 10.349 24.9041C7.91034 22.2361 5.33301 18.2601 5.33301 13.3334C5.33301 7.28141 10.1223 2.66675 15.9997 2.66675C21.877 2.66675 26.6663 7.28141 26.6663 13.3334C26.6663 18.2601 24.089 22.2361 21.6503 24.9041C20.6151 26.0333 19.4867 27.0734 18.277 28.0134C17.808 28.3773 17.3254 28.7233 16.8303 29.0507C16.8002 29.0705 16.77 29.09 16.7397 29.1094L16.713 29.1267L16.705 29.1321H16.7023C16.7023 29.1334 16.6997 29.1347 15.9997 28.0001ZM11.9997 13.3334C11.9997 12.2725 12.4211 11.2551 13.1712 10.505C13.9214 9.75484 14.9388 9.33342 15.9997 9.33342C17.0605 9.33342 18.078 9.75484 18.8281 10.505C19.5782 11.2551 19.9997 12.2725 19.9997 13.3334C19.9997 14.3943 19.5782 15.4117 18.8281 16.1618C18.078 16.912 17.0605 17.3334 15.9997 17.3334C14.9388 17.3334 13.9214 16.912 13.1712 16.1618C12.4211 15.4117 11.9997 14.3943 11.9997 13.3334Z" fill="#28303F"/>
</svg>
