<svg width="68" height="68" viewBox="0 0 68 68" fill="none" xmlns="http://www.w3.org/2000/svg">
<path d="M34 9C30.717 9 27.4661 9.64664 24.4329 10.903C21.3998 12.1594 18.6438 14.0009 16.3223 16.3223C11.6339 21.0107 9 27.3696 9 34C9 40.6304 11.6339 46.9893 16.3223 51.6777C18.6438 53.9991 21.3998 55.8406 24.4329 57.097C27.4661 58.3534 30.717 59 34 59C40.6304 59 46.9893 56.3661 51.6777 51.6777C56.3661 46.9893 59 40.6304 59 34C59 30.717 58.3534 27.4661 57.097 24.4329C55.8406 21.3998 53.9991 18.6438 51.6777 16.3223C49.3562 14.0009 46.6002 12.1594 43.5671 10.903C40.5339 9.64664 37.283 9 34 9ZM45.4944 42.8841C44.9452 43.7766 43.7766 44.0548 42.8841 43.5056L32.4518 37.0857C31.8603 36.7217 31.5 36.0769 31.5 35.3824V23.375C31.5 22.3395 32.3395 21.5 33.375 21.5C34.4105 21.5 35.25 22.3395 35.25 23.375V33.3676C35.25 34.0701 35.6186 34.7212 36.221 35.0826L44.8547 40.2628C45.7604 40.8062 46.0479 41.9846 45.4944 42.8841Z" fill="#264F66"/>
</svg>
