<svg width="68" height="68" viewBox="0 0 68 68" fill="none" xmlns="http://www.w3.org/2000/svg">
<path d="M61.7777 41.0585C61.7777 42.4127 59 43.3155 55.7592 43.7669C53.6759 39.9301 49.5092 36.996 44.6481 34.9648C45.1111 34.2877 45.574 33.8363 46.037 33.1592H47.8888C55.0648 32.9335 61.7777 37.2217 61.7777 41.0585ZM21.9629 32.9335H20.1111C12.9351 32.9335 6.22217 37.2217 6.22217 41.0585C6.22217 42.4127 8.99995 43.3155 12.2407 43.7669C14.324 39.9301 18.4907 36.996 23.3518 34.9648L21.9629 32.9335ZM33.9999 34C39.0925 34 43.2592 29.9375 43.2592 24.9722C43.2592 20.007 39.0925 15.9445 33.9999 15.9445C28.9074 15.9445 24.7407 20.007 24.7407 24.9722C24.7407 29.9375 28.9074 34 33.9999 34ZM47.1944 29.4861H47.8888C51.824 29.4861 54.8333 26.5521 54.8333 22.7153C54.8333 18.8785 51.824 15.9445 47.8888 15.9445C46.7314 15.9445 45.8055 16.1702 44.8796 16.6215C46.7314 18.8785 47.8888 21.8125 47.8888 24.9722C47.8888 26.5521 47.6574 28.132 47.1944 29.4861ZM20.1111 29.4861H20.8055C20.3425 28.132 20.1111 26.5521 20.1111 24.9722C20.1111 21.8125 21.2685 18.8785 23.1203 16.6215C22.1944 16.1702 21.2685 15.9445 20.1111 15.9445C16.1759 15.9445 13.1666 18.8785 13.1666 22.7153C13.1666 26.5521 16.1759 29.4861 20.1111 29.4861Z" fill="#264F66"/>
<path d="M30.1672 38.5139L32.8102 42.9257L30.9596 49.8176C30.7451 50.6168 29.6067 50.6042 29.41 49.8004L26.9972 39.9445C22.7369 40.6073 18.1582 43.9897 15.7354 48.1422C13.8266 51.4138 16.1229 55.1167 19.6399 56.5228C21.1183 57.1138 22.6696 57.6676 23.9998 58.0001C25.7858 58.4466 29.9999 59.3335 33.9999 59.3335C37.9999 59.3335 41.8488 58.7709 45.3332 58.0001C46.4844 57.7455 47.7846 57.2224 49.0097 56.6361C52.0272 55.192 53.8549 51.8519 52.3786 48.85C50.1799 44.3789 45.502 40.6446 41.0027 39.9445L38.5899 49.8004C38.3932 50.6042 37.2548 50.6168 37.0403 49.8176L35.1897 42.9257L37.8327 38.5139H30.1672Z" fill="#264F66"/>
</svg>
