<svg width="100" height="100" viewBox="0 0 100 100" fill="none" xmlns="http://www.w3.org/2000/svg">
<circle cx="50" cy="50" r="50" fill="#F2F4F5"/>
<path d="M71.9275 63.125C72.2806 62.4909 72.5 61.7764 72.5 61.1349V38.865C72.5 38.2235 72.2809 37.5092 71.9276 36.8751L50 50L71.9275 63.125Z" fill="#264F66"/>
<path d="M51.9488 75.7687L70.5517 64.6338C71.0876 64.3131 71.5747 63.7592 71.9277 63.1249L50.0003 50L28.0728 63.1251C28.4258 63.7592 28.913 64.3132 29.4488 64.6338L48.0517 75.7687C49.1233 76.4103 50.8772 76.4103 51.9488 75.7687Z" fill="#264F66"/>
<path d="M71.9277 36.8749C71.5744 36.2407 71.0872 35.6868 70.5515 35.366L51.9485 24.2312C50.8769 23.5896 49.1231 23.5896 48.0515 24.2312L29.4485 35.366C28.3768 36.0074 27.5 37.582 27.5 38.865V61.1348C27.5 61.7764 27.7193 62.4908 28.0725 63.1249L50 50L71.9277 36.8749Z" fill="#264F66"/>
<path d="M50.0722 65C41.7614 65 35 58.271 35 50C35 41.729 41.7614 35 50.0722 35C55.3359 35 60.2515 37.7669 62.9732 42.2408L56.5185 46.1121C55.1548 43.88 52.6998 42.5 50.0722 42.5C45.9167 42.5 42.5361 45.8644 42.5361 50C42.5361 54.1354 45.9167 57.5 50.0722 57.5C52.6928 57.5 55.1414 56.1277 56.5075 53.906L62.976 57.7548C60.2547 62.2314 55.3376 65 50.0722 65Z" fill="#F2F4F5"/>
<path d="M63.125 49.0527H61.2499V47.1875H59.3751V49.0527H57.5V50.9179H59.3751V52.7832H61.2499V50.9179H63.125V49.0527Z" fill="#F2F4F5"/>
<path d="M70.625 49.0624H68.7499V47.1875H66.8751V49.0624H65V50.9374H66.8751V52.8125H68.7499V50.9374H70.625V49.0624Z" fill="#F2F4F5"/>
</svg>
