<svg width="32" height="32" viewBox="0 0 32 32" fill="none" xmlns="http://www.w3.org/2000/svg">
<path d="M29.3337 11.4773V22.3333C29.3337 23.4401 28.9103 24.505 28.1501 25.3096C27.3899 26.1141 26.3507 26.5973 25.2457 26.6599L25.0003 26.6666H7.00033C5.89348 26.6667 4.82855 26.2432 4.02402 25.483C3.21948 24.7229 2.73632 23.6837 2.67366 22.5786L2.66699 22.3333V11.4773L15.5363 18.2186C15.6795 18.2936 15.8387 18.3328 16.0003 18.3328C16.1619 18.3328 16.3212 18.2936 16.4643 18.2186L29.3337 11.4773ZM7.00033 5.33325H25.0003C26.0744 5.33312 27.1103 5.73191 27.907 6.45228C28.7038 7.17264 29.2046 8.16323 29.3123 9.23192L16.0003 16.2053L2.68833 9.23192C2.79169 8.20567 3.25773 7.24994 4.00266 6.53654C4.74759 5.82313 5.72257 5.39883 6.75233 5.33992L7.00033 5.33325H25.0003H7.00033Z" fill="#28303F"/>
</svg>
