<svg width="67" height="68" viewBox="0 0 67 68" fill="none" xmlns="http://www.w3.org/2000/svg">
<path d="M56.8332 17.6638V42.5393C56.8332 43.953 56.2659 45.3089 55.2561 46.3085C54.2462 47.3082 52.8766 47.8698 51.4486 47.8698H15.5511C14.123 47.8698 12.7534 47.3082 11.7436 46.3085C10.7338 45.3089 10.1665 43.953 10.1665 42.5393V17.6638C10.1724 16.2519 10.7416 14.8995 11.7501 13.9011C12.7587 12.9027 14.1248 12.3392 15.5511 12.3334H51.4486C52.8748 12.3392 54.241 12.9027 55.2495 13.9011C56.2581 14.8995 56.8273 16.2519 56.8332 17.6638ZM40.6793 51.4234H26.3203C25.8443 51.4234 25.3878 51.6106 25.0512 51.9438C24.7146 52.277 24.5255 52.729 24.5255 53.2002C24.5255 53.6715 24.7146 54.1234 25.0512 54.4566C25.3878 54.7899 25.8443 54.9771 26.3203 54.9771H40.6793C41.1554 54.9771 41.6119 54.7899 41.9485 54.4566C42.2851 54.1234 42.4742 53.6715 42.4742 53.2002C42.4742 52.729 42.2851 52.277 41.9485 51.9438C41.6119 51.6106 41.1554 51.4234 40.6793 51.4234Z" fill="#264F66"/>
<path d="M36.6376 35.5863L42.1893 30.0345L36.6376 24.4828L38.3272 22.7932L45.5686 30.0345L38.3272 37.2759L36.6376 35.5863ZM30.3617 35.5863L24.81 30.0345L30.3617 24.4828L28.672 22.7932L21.4307 30.0345L28.672 37.2759L30.3617 35.5863Z" fill="white"/>
</svg>
