<svg width="32" height="32" viewBox="0 0 32 32" fill="none" xmlns="http://www.w3.org/2000/svg">
<path d="M15.9965 11.6647C13.6094 11.6647 11.6614 13.6127 11.6614 15.9998C11.6614 18.3868 13.6094 20.3349 15.9965 20.3349C18.3836 20.3349 20.3316 18.3868 20.3316 15.9998C20.3316 13.6127 18.3836 11.6647 15.9965 11.6647ZM28.9985 15.9998C28.9985 14.2046 29.0148 12.4257 28.914 10.6337C28.8132 8.55236 28.3384 6.70515 26.8164 5.18315C25.2911 3.6579 23.4472 3.18634 21.3658 3.08552C19.5706 2.98471 17.7917 3.00097 15.9998 3.00097C14.2046 3.00097 12.4257 2.98471 10.6337 3.08552C8.55236 3.18634 6.70515 3.66115 5.18315 5.18315C3.6579 6.7084 3.18634 8.55236 3.08552 10.6337C2.98471 12.4289 3.00097 14.2078 3.00097 15.9998C3.00097 17.7917 2.98471 19.5739 3.08552 21.3658C3.18634 23.4472 3.66115 25.2944 5.18315 26.8164C6.7084 28.3416 8.55236 28.8132 10.6337 28.914C12.4289 29.0148 14.2078 28.9985 15.9998 28.9985C17.7949 28.9985 19.5739 29.0148 21.3658 28.914C23.4472 28.8132 25.2944 28.3384 26.8164 26.8164C28.3416 25.2911 28.8132 23.4472 28.914 21.3658C29.0181 19.5739 28.9985 17.7949 28.9985 15.9998V15.9998ZM15.9965 22.6699C12.3053 22.6699 9.32637 19.6909 9.32637 15.9998C9.32637 12.3086 12.3053 9.32962 15.9965 9.32962C19.6877 9.32962 22.6666 12.3086 22.6666 15.9998C22.6666 19.6909 19.6877 22.6699 15.9965 22.6699ZM22.9398 10.6142C22.078 10.6142 21.382 9.91826 21.382 9.05645C21.382 8.19463 22.078 7.49867 22.9398 7.49867C23.8016 7.49867 24.4976 8.19463 24.4976 9.05645C24.4978 9.26109 24.4577 9.46377 24.3795 9.65288C24.3013 9.842 24.1866 10.0138 24.0419 10.1585C23.8972 10.3032 23.7254 10.418 23.5363 10.4962C23.3471 10.5744 23.1445 10.6145 22.9398 10.6142V10.6142Z" fill="#28303F"/>
</svg>
