<svg width="100" height="100" viewBox="0 0 100 100" fill="none" xmlns="http://www.w3.org/2000/svg">
<circle cx="50" cy="50" r="50" fill="#F2F4F5"/>
<path d="M27.8058 37.7149C27.3772 34.1434 30.1659 31 33.763 31H66.237C69.8341 31 72.6228 34.1434 72.1942 37.7149L68.3923 69.3975C68.1983 71.014 67.044 72.3516 65.4733 72.78L51.0525 76.713C50.3634 76.9009 49.6366 76.9009 48.9475 76.713L34.5267 72.78C32.956 72.3517 31.8017 71.014 31.6077 69.3975L27.8058 37.7149Z" fill="#264F66"/>
<path d="M50.7368 57.9213L53.7749 55.87C54.013 56.6333 55.5206 58.446 57.4251 58.446C59.3296 58.446 60.2138 57.3846 60.2138 56.681C60.2138 54.7634 58.2691 54.0873 57.3351 53.7626C57.1828 53.7096 57.0574 53.666 56.9717 53.6279C56.9277 53.6084 56.8612 53.5824 56.7758 53.5492C55.737 53.1442 51.9045 51.65 51.9045 47.319C51.9045 42.5486 56.4162 42 57.4364 42C58.1039 42 61.3134 42.0835 62.9117 45.1485L59.9644 47.2475C59.3182 45.9117 58.2447 45.4705 57.5838 45.4705C55.9514 45.4705 55.6113 46.6916 55.6113 47.2475C55.6113 48.8072 57.3849 49.5063 58.8824 50.0966C59.2742 50.251 59.6471 50.398 59.9644 50.551C61.5968 51.3381 64 52.6261 64 56.681C64 58.7119 62.3306 62 58.1279 62C52.4826 62 50.9862 58.5414 50.7368 57.9213Z" fill="#F2F4F5"/>
<path d="M36 58.3286L39.1665 56.2784C39.4146 57.0413 40.3787 58.4478 41.7776 58.4478C43.1765 58.4478 43.8925 56.9817 43.8925 56.2784V42.4511H47.7868V56.2784C47.8498 58.1856 46.8132 62 42.2384 62C38.0322 62 36.2836 59.4491 36 58.3286Z" fill="#F2F4F5"/>
</svg>
